<svg xmlns="http://www.w3.org/2000/svg" viewBox="0 0 512 512" fill="#00ff41">
  <path d="M256 0C114.6 0 0 100.3 0 224c0 70.1 36.3 132.5 94.5 173.7-.9 4.1-1.9 8.2-2.9 12.3-6.8 27.9-13.9 56.8-4.4 82.7 7.9 21.7 27.3 36.3 52.8 39.9 51.4 7.3 98.6-24.2 138.7-60.2 10.9-9.7 21.3-19.9 31.2-30.2 9.9 10.3 20.3 20.5 31.2 30.2 40.1 36 87.3 67.5 138.7 60.2 25.5-3.6 44.9-18.2 52.8-39.9 9.5-25.9 2.4-54.8-4.4-82.7-1-4.1-2-8.2-2.9-12.3C475.7 356.5 512 294.1 512 224 512 100.3 397.4 0 256 0zm-80 224c0-26.5 21.5-48 48-48s48 21.5 48 48-21.5 48-48 48-48-21.5-48-48zm144 48c-26.5 0-48-21.5-48-48s21.5-48 48-48 48 21.5 48 48-21.5 48-48 48z"/>
</svg>
